HIERARCHY
ROOT Hips
{
 OFFSET 0.000000 0.000000 0.000000
 CHANNELS 6 Xposition Yposition Zposition Yrotation Xrotation Zrotation
 JOINT Chest
 {
  OFFSET 0.000000 9.588913 -0.003946
  CHANNELS 3 Yrotation Xrotation Zrotation
  JOINT Chest2
  {
   OFFSET 0.000000 9.541882 0.008053
   CHANNELS 3 Yrotation Xrotation Zrotation
   JOINT Chest3
   {
    OFFSET 0.000000 9.501360 0.000000
    CHANNELS 3 Yrotation Xrotation Zrotation
    JOINT Chest4
    {
     OFFSET 0.000000 9.491660 0.000000
     CHANNELS 3 Yrotation Xrotation Zrotation
     JOINT Neck
     {
      OFFSET 0.000000 14.331917 0.000000
      CHANNELS 3 Yrotation Xrotation Zrotation
      JOINT Head
      {
       OFFSET 0.000000 8.884799 0.017034
       CHANNELS 3 Yrotation Xrotation Zrotation
       End Site
       {
        OFFSET 0.000000 16.896195 0.008993
       }
      }
     }
     JOINT RightCollar
     {
      OFFSET -2.923010 9.499495 0.000000
      CHANNELS 3 Yrotation Xrotation Zrotation
      JOINT RightShoulder
      {
       OFFSET -13.795216 0.000000 0.000000
       CHANNELS 3 Yrotation Xrotation Zrotation
       JOINT RightElbow
       {
        OFFSET -30.272209 0.000000 0.000000
        CHANNELS 3 Yrotation Xrotation Zrotation
        JOINT RightWrist
        {
         OFFSET -24.478199 0.000000 0.000000
         CHANNELS 3 Yrotation Xrotation Zrotation
         End Site
         {
          OFFSET -18.090752 0.000000 0.000000
         }
        }
       }
      }
     }
     JOINT LeftCollar
     {
      OFFSET 2.923010 9.499495 0.000000
      CHANNELS 3 Yrotation Xrotation Zrotation
      JOINT LeftShoulder
      {
       OFFSET 13.795216 0.000000 0.000000
       CHANNELS 3 Yrotation Xrotation Zrotation
       JOINT LeftElbow
       {
        OFFSET 30.272209 0.000000 0.000000
        CHANNELS 3 Yrotation Xrotation Zrotation
        JOINT LeftWrist
        {
         OFFSET 24.478199 0.000000 0.000000
         CHANNELS 3 Yrotation Xrotation Zrotation
         End Site
         {
          OFFSET 18.090752 0.000000 0.000000
         }
        }
       }
      }
     }
    }
   }
  }
 }
 JOINT RightHip
 {
  OFFSET -7.826875 0.019532 0.001973
  CHANNELS 3 Yrotation Xrotation Zrotation
  JOINT RightKnee
  {
   OFFSET 0.000000 -40.546152 -0.001885
   CHANNELS 3 Yrotation Xrotation Zrotation
   JOINT RightAnkle
   {
    OFFSET 0.000000 -39.417092 -0.003189
    CHANNELS 3 Yrotation Xrotation Zrotation
    JOINT RightToe
    {
     OFFSET 0.000000 -7.579396 17.243563
     CHANNELS 3 Yrotation Xrotation Zrotation
     End Site
     {
      OFFSET 0.000000 -1.500329 6.694466
     }
    }
   }
  }
 }
 JOINT LeftHip
 {
  OFFSET 7.826875 0.019532 0.001973
  CHANNELS 3 Yrotation Xrotation Zrotation
  JOINT LeftKnee
  {
   OFFSET 0.000000 -40.546152 -0.001885
   CHANNELS 3 Yrotation Xrotation Zrotation
   JOINT LeftAnkle
   {
    OFFSET 0.000000 -39.417092 -0.003189
    CHANNELS 3 Yrotation Xrotation Zrotation
    JOINT LeftToe
    {
     OFFSET 0.000000 -7.579396 17.243563
     CHANNELS 3 Yrotation Xrotation Zrotation
     End Site
     {
      OFFSET 0.000000 -1.500329 6.694466
     }
    }
   }
  }
 }
}
MOTION
Frames: 8
Frame Time: 0.008333
-27.124829 83.712504 -191.757662 52.276731 -13.876367 -1.259515 0.817810 4.531704 2.951546 -0.948542 2.959593 0.408978 -1.182757 3.700502 0.503722 -0.948533 2.959582 0.408982 2.299352 17.218441 -2.944431 3.115497 -7.533933 -3.653226 -11.171404 3.486413 -12.402374 -1.299603 28.642824 95.444053 12.459098 -4.286288 11.728824 2.446812 -2.273311 2.375828 -8.932551 -7.213554 -0.738465 2.827739 -11.943175 -88.428744 -44.641919 -0.030453 -17.280911 4.398013 8.091941 5.525132 -9.615477 -12.964801 1.379307 -2.571783 30.737780 -4.219390 -0.543601 -15.341689 5.754295 -1.629528 -4.813187 3.074325 -0.824689 8.366133 7.592165 6.455099 65.296508 10.554237 8.986387 -7.534197 -10.274285 -1.900548 -2.792602 -5.821424
-25.897290 83.460497 -190.496161 52.316665 -14.429334 -1.770107 0.657645 5.007327 3.096568 -0.907738 3.043103 0.554485 -1.130451 3.805202 0.685802 -0.907729 3.043094 0.554489 2.325115 16.998177 -3.053655 3.168407 -7.768194 -3.775732 -10.714263 3.221418 -11.755863 -1.033177 27.410738 94.856830 12.465423 -5.110602 11.271278 2.614260 -2.329234 2.275555 -8.441662 -6.633399 -1.013442 3.637060 -11.352943 -88.279874 -42.676094 1.258388 -16.242041 4.655302 8.754462 5.826502 -10.357777 -12.634606 2.022344 -2.250397 33.373623 -4.199208 -0.654601 -15.046751 4.155064 -1.230066 -4.966982 3.471941 -1.423839 7.258141 8.065216 6.379476 67.308723 10.534670 9.937963 -8.760925 -9.617934 -1.643424 0.177975 -4.433688
-24.656814 83.256453 -189.249122 52.467228 -14.993932 -2.102789 0.391682 5.547489 3.099577 -0.866661 3.141865 0.685254 -1.077839 3.928900 0.849445 -0.866655 3.141859 0.685257 2.360441 16.735235 -3.156308 3.230023 -8.047871 -3.893508 -10.307411 3.166911 -11.148155 -0.704601 25.713803 94.251886 12.435475 -5.907171 10.753577 2.751031 -2.394195 2.155298 -8.010331 -6.041512 -1.235584 4.460503 -10.808086 -88.131059 -40.693200 2.339790 -15.118320 5.001934 9.429549 6.093783 -10.953833 -12.061378 2.377553 -1.487007 35.681112 -3.824310 -1.387142 -15.099323 2.744034 -0.746555 -4.937375 3.743236 -2.149595 6.037852 8.168818 5.987846 69.283811 10.310133 10.950763 -9.810880 -8.828798 -1.416233 1.764869 -3.493425
-23.406467 83.098252 -188.015145 52.663870 -15.544122 -2.213829 0.080001 6.066182 2.964834 -0.827160 3.259716 0.782249 -1.027388 4.076357 0.970833 -0.827156 3.259714 0.782251 2.417610 16.437163 -3.228900 3.307958 -8.364881 -3.984316 -9.953216 3.200981 -10.525888 -0.386606 23.765297 93.549022 12.443490 -6.593257 10.221931 2.826664 -2.459971 1.972140 -7.629876 -5.399666 -1.394551 5.229407 -10.315303 -87.936522 -38.710423 3.164531 -13.978542 5.434275 10.089313 6.308612 -11.327201 -11.311902 2.391540 -0.731010 37.644203 -3.370309 -2.157704 -15.477937 1.799826 -0.353847 -4.775148 3.703671 -2.973755 4.693980 7.896226 5.405644 71.172695 9.916831 11.923084 -10.703090 -7.960599 -1.215755 2.532233 -2.829690
-22.158286 82.983210 -186.782924 52.841233 -16.061233 -2.160039 -0.225341 6.523725 2.765090 -0.785471 3.398258 0.839842 -0.974457 4.249567 1.042961 -0.785467 3.398257 0.839842 2.489542 16.105493 -3.265802 3.393284 -8.717690 -4.040399 -9.631654 3.164760 -9.869694 -0.202025 21.808150 92.751116 12.570166 -7.056540 9.695377 2.851619 -2.509138 1.687052 -7.281274 -4.734364 -1.492226 5.882703 -9.801681 -87.646018 -36.781195 3.742345 -12.887804 5.845873 10.686931 6.468414 -11.663637 -10.417006 2.174102 -0.316326 39.266699 -3.105913 -2.516893 -16.112891 1.242458 -0.058105 -4.519678 3.416253 -3.805859 3.214163 7.390729 4.750602 72.942116 9.412399 12.752189 -11.459577 -7.059139 -1.024107 2.824446 -2.321696
-20.934064 82.903977 -185.547256 52.890571 -16.460310 -2.014816 -0.443870 6.870611 2.580685 -0.732483 3.543976 0.862668 -0.907670 4.431638 1.071747 -0.732479 3.543975 0.862668 2.561237 15.747814 -3.272976 3.471388 -9.098021 -4.064629 -9.326079 2.992119 -9.194491 -0.295868 19.975102 91.910866 12.869016 -7.196263 9.188715 2.869961 -2.536026 1.289924 -6.944133 -4.071434 -1.543112 6.413102 -9.186835 -87.237045 -34.994860 4.095133 -11.915249 6.169282 11.169262 6.575046 -11.947085 -9.495358 1.895937 -0.176045 40.599971 -3.035004 -2.564021 -16.890411 0.935862 0.178114 -4.226747 3.005837 -4.464006 1.524425 6.832683 4.099025 74.567866 8.887993 13.339179 -12.134339 -6.116758 -0.848625 2.862394 -1.910331
-19.753328 82.843235 -184.345951 52.952648 -16.493539 -1.729224 -0.767996 6.909294 2.282903 -0.657136 3.681916 0.864495 -0.813125 4.603889 1.074554 -0.657129 3.681911 0.864495 2.622867 15.378041 -3.264540 3.535244 -9.490540 -4.069987 -9.028189 2.689766 -8.523974 -0.744837 18.298814 91.076356 13.366572 -6.999001 8.735182 2.941592 -2.554165 0.801040 -6.603532 -3.402525 -1.556820 6.912308 -8.437196 -86.738346 -33.455047 4.291153 -11.153317 6.435220 11.502907 6.641884 -12.209233 -8.897195 1.494416 -0.204063 41.779701 -2.999940 -2.465814 -17.745373 0.735951 0.359550 -3.951186 2.587807 -5.057254 -0.889344 6.137805 3.758540 76.267255 8.688650 13.677184 -12.293256 -5.043969 -0.823924 2.345712 -1.615325
-18.581276 82.817735 -183.107790 52.525418 -16.613373 -1.410859 -0.710463 7.087919 2.066181 -0.548155 3.806144 0.862798 -0.676572 4.758911 1.073381 -0.548144 3.806131 0.862798 2.668622 15.020537 -3.257762 3.582925 -9.868884 -4.073834 -8.735429 2.299145 -7.889225 -1.523215 16.768334 90.295037 14.073750 -6.546763 8.373236 3.118244 -2.574620 0.260154 -6.249194 -2.710666 -1.523519 7.539037 -7.528832 -86.209805 -32.236986 4.463418 -10.689060 6.676100 11.710909 6.694047 -11.875752 -8.176708 1.104000 -0.218557 42.850329 -2.799296 -2.274172 -18.500275 0.559003 0.374963 -3.834350 2.169425 -5.004084 -2.898868 5.616622 3.294970 77.458467 8.431635 13.641862 -12.991410 -4.115388 -0.669227 2.302336 -1.271450
